<?xml version="1.0" encoding="utf-8"?>
<!-- Generator: Adobe Illustrator 19.0.0, SVG Export Plug-In . SVG Version: 6.00 Build 0)  -->
<svg version="1.1" id="Слой_1" xmlns="http://www.w3.org/2000/svg" xmlns:xlink="http://www.w3.org/1999/xlink" x="0px" y="0px"
	 viewBox="-255 283.3 331 29" style="enable-background:new -255 283.3 331 29;" xml:space="preserve">
<style type="text/css">
	.st0{fill:#000A02;}
	.st1{fill:#00C000;}
</style>
<title>Wikimedium Logo</title>
<g>
	<g>
		
			<rect x="-246" y="283.4" transform="matrix(-0.7071 0.7071 -0.7071 -0.7071 -200.5057 679.6063)" class="st0" width="9.9" height="29.7"/>
		
			<rect x="-241.9" y="293.3" transform="matrix(-0.7071 0.7071 -0.7071 -0.7071 -176.6067 669.7081)" class="st0" width="29.7" height="9.9"/>
		
			<rect x="-218" y="283.4" transform="matrix(-0.7071 0.7071 -0.7071 -0.7071 -152.7077 659.8098)" class="st0" width="9.9" height="29.7"/>
		
			<rect x="-213.8" y="293.3" transform="matrix(-0.7071 0.7071 -0.7071 -0.7071 -128.7916 649.9044)" class="st0" width="29.7" height="9.9"/>
		
			<rect x="-203.9" y="283.4" transform="matrix(-0.7071 0.7071 -0.7071 -0.7071 -128.7916 649.9044)" class="st1" width="9.9" height="29.7"/>
		
			<rect x="-255.9" y="293.3" transform="matrix(-0.7071 0.7071 -0.7071 -0.7071 -200.5057 679.6063)" class="st1" width="29.7" height="9.9"/>
		
			<rect x="-232" y="283.4" transform="matrix(-0.7071 0.7071 -0.7071 -0.7071 -176.6067 669.7081)" class="st1" width="9.9" height="29.7"/>
		
			<rect x="-227.9" y="293.3" transform="matrix(-0.7071 0.7071 -0.7071 -0.7071 -152.7077 659.8098)" class="st1" width="29.7" height="9.9"/>
		<path d="M-159.1,302.4l0.6,4.7h0.1l0.7-4.8l6.2-18.1h2l6.2,18.2l0.7,4.7h0.1l0.8-4.8l4.9-18.1h4l-8.5,28.4h-2.3l-6.1-18.2
			l-0.8-4.2h-0.2l-0.8,4.3l-6.1,18.1h-2.3l-8.7-28.4h4.2L-159.1,302.4z"/>
		<path d="M-128.7,286.3c0-0.6,0.2-1.2,0.7-1.7c0.5-0.5,1.2-0.8,1.9-0.7c0.7,0,1.4,0.2,1.9,0.7c0.5,0.4,0.8,1,0.8,1.7
			c0,0.6-0.3,1.2-0.8,1.6c-0.5,0.5-1.2,0.7-1.9,0.7c-0.7,0-1.4-0.2-1.9-0.7C-128.4,287.5-128.7,286.9-128.7,286.3z M-127.9,291.3
			h3.7v21h-3.7C-127.9,312.3-127.9,291.3-127.9,291.3z"/>
		<path d="M-110.3,302.8h-2.3v9.4h-3.7v-28h3.7v16.6l2.1-0.7l7-8.9h4.3l-6.7,8.1l0,0l-2.2,1.6l2.5,1.8l7.4,9.5h-4.6L-110.3,302.8z"
			/>
		<path d="M-93.7,286.3c0-0.6,0.3-1.2,0.7-1.7c0.5-0.5,1.2-0.8,1.9-0.7c0.7,0,1.4,0.2,1.9,0.7c0.5,0.4,0.8,1,0.8,1.7
			c0,0.6-0.3,1.2-0.8,1.6c-0.5,0.5-1.2,0.7-1.9,0.7c-0.7,0-1.4-0.2-1.9-0.7C-93.5,287.5-93.7,286.9-93.7,286.3z M-93,291.3h3.7v21
			H-93V291.3z"/>
		<path d="M-67.7,312.3v-11.5c0-1,0-2-0.2-3c-0.1-0.7-0.3-1.5-0.6-2.1c-0.3-0.6-0.8-1-1.3-1.3c-0.7-0.3-1.5-0.4-2.2-0.4
			c-1.3,0-2.5,0.4-3.5,1.2c-0.9,0.8-1.6,1.8-2,3v14.2h-3.7v-21h2.5l0.7,2.8h0.4c0.8-1,1.8-1.8,2.9-2.4c1.3-0.7,2.7-1.1,4.2-1
			c1.3,0,2.5,0.3,3.6,0.9c1.1,0.7,1.9,1.8,2.2,3.1c0.8-1.2,1.8-2.2,3-2.9c1.3-0.7,2.7-1.1,4.1-1.1c1.1,0,2.2,0.1,3.3,0.4
			c0.9,0.3,1.6,0.8,2.2,1.5c0.6,0.9,1,1.9,1.2,2.9c0.3,1.5,0.4,3.1,0.4,4.6v12.1h-3.7v-12.1c0-0.9-0.1-1.8-0.2-2.8
			c-0.1-0.7-0.3-1.3-0.7-1.9c-0.3-0.5-0.8-0.9-1.3-1.2c-0.7-0.3-1.5-0.4-2.3-0.4c-1.3-0.1-2.6,0.4-3.6,1.2c-1,1-1.6,2.2-1.9,3.6
			v13.5H-67.7L-67.7,312.3z"/>
		<path d="M-26.3,310.6c-1.1,0.8-2.2,1.3-3.5,1.7c-1.5,0.4-3,0.6-4.5,0.6c-1.6,0-3.1-0.2-4.6-0.8c-1.2-0.5-2.3-1.2-3.2-2.2
			c-0.9-1-1.5-2.2-1.8-3.5c-0.4-1.5-0.6-3-0.6-4.6c0-3.6,0.9-6.4,2.7-8.3c1.8-1.9,4.3-2.9,7.6-2.9c1,0,2.1,0.1,3.1,0.3
			c1,0.2,2,0.6,2.8,1.3c0.9,0.7,1.6,1.6,2,2.6c0.6,1.4,0.8,2.8,0.8,4.3c0,0.4,0,0.9,0,1.5c0,0.5-0.1,1.1-0.2,1.6h-15
			c-0.1,2,0.5,4,1.7,5.6c1.1,1.3,3,1.9,5.7,1.9c1.1,0,2.2-0.2,3.2-0.6c0.9-0.3,1.7-0.8,2.4-1.4L-26.3,310.6z M-29.1,299.6
			c0.1-2.1-0.4-3.6-1.3-4.5c-1.1-0.9-2.4-1.4-3.9-1.3c-1.6-0.1-3.2,0.4-4.4,1.3c-1.1,0.9-1.7,2.4-1.9,4.5H-29.1z"/>
		<path d="M-1.5,305c0,1.3,0,2.6,0.1,3.8c0,1.2,0.2,2.3,0.4,3.5h-2.4l-0.9-3.2h-0.4c-0.7,1.1-1.6,2-2.7,2.6c-1.3,0.7-2.7,1-4.1,1
			c-3,0-5.3-0.9-6.7-2.7c-1.5-1.8-2.2-4.5-2.2-8.2c0-3.6,0.9-6.3,2.7-8.2c1.8-1.9,4.4-2.9,7.7-2.9c0.6,0,1.1,0,1.5,0.1l1.2,0.1
			c0.4,0.1,0.8,0.2,1.1,0.3l1.1,0.3v-7.3h3.7L-1.5,305L-1.5,305z M-5.2,295.2c-0.6-0.4-1.3-0.8-2-0.9C-8.1,294-9,293.9-10,294
			c-1.9-0.1-3.7,0.6-5,1.9c-1.2,1.3-1.8,3.3-1.8,6.1c0,1,0.1,2.1,0.3,3.1c0.2,0.9,0.5,1.7,1,2.5c0.5,0.7,1.1,1.2,1.8,1.6
			c0.9,0.4,1.8,0.6,2.8,0.6c1.4,0.1,2.8-0.3,3.8-1.2c1-1,1.7-2.2,1.9-3.6L-5.2,295.2L-5.2,295.2z"/>
		<path d="M6,286.3c0-0.6,0.3-1.2,0.7-1.7c0.5-0.5,1.2-0.8,1.8-0.7c0.7,0,1.4,0.2,1.9,0.7c0.5,0.4,0.8,1,0.8,1.7
			c0,0.6-0.3,1.2-0.8,1.6c-0.5,0.5-1.2,0.7-1.9,0.7c-0.7,0-1.4-0.2-1.9-0.7C6.2,287.5,6,286.9,6,286.3z M6.8,291.3h3.7v21H6.8V291.3
			z"/>
		<path d="M22,291.3v11.6c0,1,0.1,2,0.2,3c0.1,0.8,0.3,1.5,0.7,2.1c0.4,0.6,0.9,1,1.5,1.3c0.7,0.3,1.5,0.5,2.3,0.5
			c1.4,0.1,2.8-0.4,3.9-1.4c1-0.9,1.8-2.1,2.3-3.4v-13.7h3.7v15c0,1,0,2,0.1,3.1c0.1,1,0.2,1.9,0.4,2.9h-2.5l-1-3.5h-0.4
			c-0.7,1.2-1.7,2.2-2.9,2.9c-1.4,0.8-3,1.2-4.6,1.1c-1.1,0-2.2-0.1-3.2-0.4c-0.9-0.3-1.7-0.8-2.3-1.5c-0.7-0.8-1.2-1.8-1.4-2.8
			c-0.3-1.4-0.5-2.9-0.5-4.4v-12.4H22z"/>
		<path d="M57.7,312.3v-11.5c0-1,0-2-0.2-3c-0.1-0.7-0.3-1.5-0.6-2.1c-0.3-0.6-0.8-1-1.3-1.3c-0.7-0.3-1.5-0.4-2.2-0.4
			c-1.3,0-2.5,0.4-3.5,1.2c-0.9,0.8-1.6,1.8-2,3v14.2h-3.7v-21h2.5l0.7,2.8h0.4c0.8-1,1.8-1.8,2.9-2.4c1.3-0.7,2.7-1.1,4.2-1
			c1.3,0,2.5,0.3,3.6,0.9c1.1,0.7,1.9,1.8,2.2,3.1c0.8-1.2,1.8-2.2,3-2.9c1.3-0.7,2.7-1.1,4.1-1.1c1.1,0,2.2,0.1,3.3,0.4
			c0.9,0.3,1.6,0.8,2.2,1.5c0.6,0.9,1,1.9,1.2,2.9c0.3,1.5,0.4,3.1,0.4,4.6v12.1h-3.7v-12.1c0-0.9-0.1-1.8-0.2-2.8
			c-0.1-0.7-0.3-1.3-0.7-1.9c-0.3-0.5-0.8-0.9-1.3-1.2c-0.7-0.3-1.5-0.4-2.3-0.4c-1.3-0.1-2.6,0.4-3.6,1.2c-1,1-1.6,2.2-1.9,3.6
			v13.5H57.7L57.7,312.3z"/>
	</g>
</g>
</svg>
